<svg width="18" height="15" viewBox="0 0 18 15" fill="none" xmlns="http://www.w3.org/2000/svg">
  <path
    d="M14.291 5.97266L14.0723 6.35547C13.9811 6.51953 13.8444 6.57422 13.6621 6.51953C13.334 6.39193 13.0423 6.21875 12.7871 6C12.6413 5.8724 12.6139 5.72656 12.7051 5.5625L12.9238 5.17969C12.7415 4.96094 12.5957 4.71484 12.4863 4.44141H12.0488C11.8483 4.44141 11.7389 4.34115 11.7207 4.14062C11.6478 3.8125 11.6478 3.47526 11.7207 3.12891C11.7389 2.94661 11.8483 2.85547 12.0488 2.85547H12.4863C12.5957 2.58203 12.7415 2.33594 12.9238 2.11719L12.7051 1.70703C12.6139 1.54297 12.6413 1.40625 12.7871 1.29688C13.0423 1.07812 13.334 0.904948 13.6621 0.777344C13.8444 0.704427 13.9811 0.75 14.0723 0.914062L14.291 1.32422C14.5827 1.26953 14.8743 1.26953 15.166 1.32422L15.3848 0.914062C15.4759 0.75 15.6126 0.704427 15.7949 0.777344C16.123 0.886719 16.4147 1.0599 16.6699 1.29688C16.8158 1.40625 16.8431 1.54297 16.752 1.70703L16.5332 2.11719C16.7155 2.33594 16.8613 2.58203 16.9707 2.85547H17.4082C17.6087 2.85547 17.7181 2.94661 17.7363 3.12891C17.8092 3.47526 17.8092 3.8125 17.7363 4.14062C17.7181 4.34115 17.6087 4.44141 17.4082 4.44141H16.9707C16.8613 4.71484 16.7155 4.96094 16.5332 5.17969L16.752 5.5625C16.8431 5.74479 16.8158 5.89062 16.6699 6C16.4147 6.21875 16.123 6.39193 15.7949 6.51953C15.6126 6.57422 15.4759 6.51953 15.3848 6.35547L15.166 5.97266C14.8743 6.02734 14.5827 6.02734 14.291 5.97266ZM14.0176 4.35938C14.3457 4.61458 14.6829 4.6875 15.0293 4.57812C15.3757 4.46875 15.5853 4.25911 15.6582 3.94922C15.7493 3.62109 15.6764 3.27474 15.4395 2.91016C15.1113 2.65495 14.7741 2.58203 14.4277 2.69141C14.0814 2.80078 13.8626 3.01953 13.7715 3.34766C13.6986 3.65755 13.7806 3.99479 14.0176 4.35938ZM10.8457 8.57031L11.7754 9.03516C12.0853 9.21745 12.1764 9.48177 12.0488 9.82812C11.8848 10.3021 11.502 10.9036 10.9004 11.6328C10.6634 11.9062 10.39 11.9518 10.0801 11.7695L9.25977 11.3047C8.82227 11.6875 8.33008 11.9792 7.7832 12.1797V13.1094C7.7832 13.2552 7.72852 13.3919 7.61914 13.5195C7.50977 13.6471 7.38216 13.7201 7.23633 13.7383C6.54362 13.8659 5.85091 13.8659 5.1582 13.7383C4.99414 13.7201 4.85742 13.6471 4.74805 13.5195C4.6569 13.3919 4.61133 13.2552 4.61133 13.1094V12.1797C4.04622 11.9792 3.54492 11.6875 3.10742 11.3047L2.31445 11.7695C2.00456 11.9518 1.73112 11.9062 1.49414 11.6328C0.910807 10.9219 0.527995 10.3203 0.345703 9.82812C0.218099 9.48177 0.309245 9.21745 0.619141 9.03516L1.52148 8.57031C1.41211 7.98698 1.41211 7.41276 1.52148 6.84766L0.619141 6.38281C0.291016 6.20052 0.19987 5.9362 0.345703 5.58984C0.527995 5.09766 0.910807 4.49609 1.49414 3.78516C1.71289 3.51172 1.98633 3.46615 2.31445 3.64844L3.10742 4.08594C3.56315 3.70312 4.06445 3.42057 4.61133 3.23828V2.30859C4.61133 2.14453 4.6569 2.00781 4.74805 1.89844C4.85742 1.77083 4.99414 1.69792 5.1582 1.67969C5.85091 1.55208 6.54362 1.55208 7.23633 1.67969C7.30924 1.67969 7.37305 1.70703 7.42773 1.76172C7.50065 1.79818 7.56445 1.84375 7.61914 1.89844C7.67383 1.95312 7.71029 2.01693 7.72852 2.08984C7.76497 2.16276 7.7832 2.23568 7.7832 2.30859V3.23828C8.33008 3.4388 8.82227 3.72135 9.25977 4.08594L10.0801 3.64844C10.39 3.44792 10.6634 3.49349 10.9004 3.78516C11.4837 4.47786 11.8665 5.07943 12.0488 5.58984C12.1764 5.9362 12.0853 6.20052 11.7754 6.38281L10.8457 6.84766C10.9551 7.41276 10.9551 7.98698 10.8457 8.57031ZM7.64648 9.14453C7.95638 8.74349 8.12956 8.32422 8.16602 7.88672C8.20247 7.44922 8.12044 7.07552 7.91992 6.76562C7.7194 6.4375 7.45508 6.17318 7.12695 5.97266C6.81706 5.77214 6.44336 5.69922 6.00586 5.75391C5.56836 5.79036 5.14909 5.96354 4.74805 6.27344C4.43815 6.67448 4.26497 7.09375 4.22852 7.53125C4.19206 7.96875 4.27409 8.35156 4.47461 8.67969C4.67513 8.98958 4.93034 9.24479 5.24023 9.44531C5.56836 9.64583 5.95117 9.72786 6.38867 9.69141C6.82617 9.63672 7.24544 9.45443 7.64648 9.14453ZM14.291 14.1484L14.0723 14.5312C13.9811 14.6953 13.8444 14.75 13.6621 14.6953C13.334 14.5677 13.0423 14.3945 12.7871 14.1758C12.6413 14.0482 12.6139 13.9023 12.7051 13.7383L12.9238 13.3555C12.7415 13.1367 12.5957 12.8906 12.4863 12.6172H12.0488C11.8483 12.6172 11.7389 12.5169 11.7207 12.3164C11.6478 11.9883 11.6478 11.651 11.7207 11.3047C11.7389 11.1224 11.8483 11.0312 12.0488 11.0312H12.4863C12.5957 10.7578 12.7415 10.5026 12.9238 10.2656L12.7051 9.88281C12.6139 9.71875 12.6413 9.57292 12.7871 9.44531C13.0423 9.22656 13.334 9.0625 13.6621 8.95312C13.8444 8.88021 13.9811 8.92578 14.0723 9.08984L14.291 9.5C14.5827 9.44531 14.8743 9.44531 15.166 9.5L15.3848 9.08984C15.4759 8.92578 15.6126 8.88021 15.7949 8.95312C16.123 9.0625 16.4147 9.22656 16.6699 9.44531C16.8158 9.57292 16.8431 9.71875 16.752 9.88281L16.5332 10.2656C16.7155 10.5026 16.8613 10.7578 16.9707 11.0312H17.4082C17.6087 11.0312 17.7181 11.1224 17.7363 11.3047C17.8092 11.651 17.8092 11.9883 17.7363 12.3164C17.7181 12.5169 17.6087 12.6172 17.4082 12.6172H16.9707C16.8613 12.8906 16.7155 13.1367 16.5332 13.3555L16.752 13.7383C16.8431 13.9023 16.8158 14.0482 16.6699 14.1758C16.4147 14.3945 16.123 14.5677 15.7949 14.6953C15.6126 14.75 15.4759 14.6953 15.3848 14.5312L15.166 14.1484C14.8743 14.2031 14.5827 14.2031 14.291 14.1484ZM14.0176 12.5352C14.3457 12.7904 14.6829 12.8633 15.0293 12.7539C15.3757 12.6445 15.5853 12.4349 15.6582 12.125C15.7493 11.7969 15.6764 11.4505 15.4395 11.0859C15.1113 10.8307 14.7741 10.7578 14.4277 10.8672C14.0814 10.9766 13.8626 11.1953 13.7715 11.5234C13.6986 11.8333 13.7806 12.1706 14.0176 12.5352Z"
    fill="#4F4F4F" />
</svg>