<svg width="12" height="15" viewBox="0 0 12 15" fill="none" xmlns="http://www.w3.org/2000/svg">
  <path
    d="M8.84375 11.6875C8.98958 11.6875 9.0625 11.7604 9.0625 11.9062V12.3438C9.0625 12.4896 8.98958 12.5625 8.84375 12.5625H6.65625C6.51042 12.5625 6.4375 12.4896 6.4375 12.3438V11.9062C6.4375 11.7604 6.51042 11.6875 6.65625 11.6875H8.84375ZM2.9375 7.3125C2.9375 7.1849 2.97396 7.08464 3.04688 7.01172C3.13802 6.92057 3.2474 6.875 3.375 6.875H8.625C8.7526 6.875 8.85286 6.92057 8.92578 7.01172C9.01693 7.08464 9.0625 7.1849 9.0625 7.3125V9.9375C9.0625 10.0651 9.01693 10.1745 8.92578 10.2656C8.85286 10.3385 8.7526 10.375 8.625 10.375H3.375C3.2474 10.375 3.13802 10.3385 3.04688 10.2656C2.97396 10.1745 2.9375 10.0651 2.9375 9.9375V7.3125ZM3.8125 7.75V9.5H8.1875V7.75H3.8125ZM10.8672 3.42969C11.1224 3.6849 11.25 3.99479 11.25 4.35938V13.4375C11.25 13.8021 11.1224 14.112 10.8672 14.3672C10.612 14.6224 10.3021 14.75 9.9375 14.75H2.0625C1.69792 14.75 1.38802 14.6224 1.13281 14.3672C0.877604 14.112 0.75 13.8021 0.75 13.4375V2.0625C0.75 1.82552 0.804688 1.60677 0.914062 1.40625C1.04167 1.20573 1.20573 1.05078 1.40625 0.941406C1.60677 0.813802 1.82552 0.75 2.0625 0.75H7.64062C8.00521 0.75 8.3151 0.877604 8.57031 1.13281L10.8672 3.42969ZM7.75 2.17188V4.25H9.82812L7.75 2.17188ZM9.9375 13.4375V5.5625H7.09375C6.91146 5.5625 6.75651 5.4987 6.62891 5.37109C6.5013 5.24349 6.4375 5.08854 6.4375 4.90625V2.0625H2.0625V13.4375H9.9375ZM3.15625 3.8125C3.01042 3.8125 2.9375 3.73958 2.9375 3.59375V3.15625C2.9375 3.01042 3.01042 2.9375 3.15625 2.9375H5.34375C5.48958 2.9375 5.5625 3.01042 5.5625 3.15625V3.59375C5.5625 3.73958 5.48958 3.8125 5.34375 3.8125H3.15625ZM3.15625 5.5625C3.01042 5.5625 2.9375 5.48958 2.9375 5.34375V4.90625C2.9375 4.76042 3.01042 4.6875 3.15625 4.6875H5.34375C5.48958 4.6875 5.5625 4.76042 5.5625 4.90625V5.34375C5.5625 5.48958 5.48958 5.5625 5.34375 5.5625H3.15625Z"
    fill="#4F4F4F" />
</svg>