<svg width="12" height="15" viewBox="0 0 12 15" fill="none" xmlns="http://www.w3.org/2000/svg">
  <path
    d="M9.9375 0.75C10.3021 0.75 10.612 0.877604 10.8672 1.13281C11.1224 1.38802 11.25 1.69792 11.25 2.0625V13.4375C11.25 13.8021 11.1224 14.112 10.8672 14.3672C10.612 14.6224 10.3021 14.75 9.9375 14.75H2.0625C1.69792 14.75 1.38802 14.6224 1.13281 14.3672C0.877604 14.112 0.75 13.8021 0.75 13.4375V2.0625C0.75 1.69792 0.877604 1.38802 1.13281 1.13281C1.38802 0.877604 1.69792 0.75 2.0625 0.75H9.9375ZM9.9375 13.4375V2.0625H2.0625V13.4375H9.9375ZM4.6875 3.8125C4.5599 3.8125 4.45052 3.77604 4.35938 3.70312C4.28646 3.61198 4.25 3.5026 4.25 3.375C4.25 3.2474 4.28646 3.14714 4.35938 3.07422C4.45052 2.98307 4.5599 2.9375 4.6875 2.9375H7.3125C7.4401 2.9375 7.54036 2.98307 7.61328 3.07422C7.70443 3.14714 7.75 3.2474 7.75 3.375C7.75 3.5026 7.70443 3.61198 7.61328 3.70312C7.54036 3.77604 7.4401 3.8125 7.3125 3.8125H4.6875ZM7.23047 8.10547C6.88411 8.45182 6.47396 8.625 6 8.625C5.52604 8.625 5.11589 8.45182 4.76953 8.10547C4.42318 7.75911 4.25 7.34896 4.25 6.875C4.25 6.40104 4.42318 5.99089 4.76953 5.64453C5.11589 5.29818 5.52604 5.125 6 5.125C6.47396 5.125 6.88411 5.29818 7.23047 5.64453C7.57682 5.99089 7.75 6.40104 7.75 6.875C7.75 7.34896 7.57682 7.75911 7.23047 8.10547ZM3.53906 12.125C3.375 12.125 3.22917 12.0794 3.10156 11.9883C2.99219 11.8789 2.9375 11.7513 2.9375 11.6055V11.0859C2.9375 10.6484 3.11068 10.2747 3.45703 9.96484C3.82161 9.65495 4.25911 9.5 4.76953 9.5C4.84245 9.5 4.9974 9.53646 5.23438 9.60938C5.47135 9.68229 5.72656 9.71875 6 9.71875C6.27344 9.71875 6.52865 9.68229 6.76562 9.60938C7.0026 9.53646 7.15755 9.5 7.23047 9.5C7.74089 9.5 8.16927 9.65495 8.51562 9.96484C8.88021 10.2747 9.0625 10.6484 9.0625 11.0859V11.6055C9.0625 11.7513 8.9987 11.8789 8.87109 11.9883C8.76172 12.0794 8.625 12.125 8.46094 12.125H3.53906Z"
    fill="#4F4F4F" />
</svg>