<svg width="14" height="15" viewBox="0 0 14 15" fill="none" xmlns="http://www.w3.org/2000/svg">
  <path
    d="M13.5352 5.26172C13.8451 5.51693 14 5.85417 14 6.27344V13.4375C14 13.8021 13.8724 14.112 13.6172 14.3672C13.362 14.6224 13.0521 14.75 12.6875 14.75H1.3125C0.947917 14.75 0.638021 14.6224 0.382812 14.3672C0.127604 14.112 0 13.8021 0 13.4375V6.24609C0 5.84505 0.164062 5.50781 0.492188 5.23438C0.510417 5.21615 0.783854 4.9974 1.3125 4.57812V3.375C1.3125 3.01042 1.4401 2.70052 1.69531 2.44531C1.95052 2.1901 2.26042 2.0625 2.625 2.0625H4.42969C4.73958 1.80729 4.98568 1.60677 5.16797 1.46094C5.35026 1.3151 5.6237 1.16016 5.98828 0.996094C6.35286 0.832031 6.6901 0.75 7 0.75C7.3099 0.75 7.64714 0.832031 8.01172 0.996094C8.3763 1.16016 8.64974 1.3151 8.83203 1.46094C9.01432 1.60677 9.26042 1.80729 9.57031 2.0625H11.375C11.7396 2.0625 12.0495 2.1901 12.3047 2.44531C12.5599 2.70052 12.6875 3.01042 12.6875 3.375V4.57812C13.2161 4.9974 13.4987 5.22526 13.5352 5.26172ZM2.625 3.375V7.66797C4.10156 8.87109 4.89453 9.50911 5.00391 9.58203C5.00391 9.58203 5.13151 9.69141 5.38672 9.91016C5.64193 10.1107 5.83333 10.2565 5.96094 10.3477C6.08854 10.4388 6.2526 10.5391 6.45312 10.6484C6.67188 10.7578 6.85417 10.8125 7 10.8125C7.14583 10.8125 7.31901 10.7578 7.51953 10.6484C7.73828 10.5391 7.90234 10.4479 8.01172 10.375C8.13932 10.2839 8.33073 10.1289 8.58594 9.91016C8.84115 9.69141 8.97786 9.58203 8.99609 9.58203C9.08724 9.50911 9.88021 8.87109 11.375 7.66797V3.375H2.625ZM12.6875 13.2734V8.29688C10.7917 9.8099 9.83464 10.5755 9.81641 10.5938C9.79818 10.6302 9.67057 10.7487 9.43359 10.9492C9.19661 11.1315 9.01432 11.2682 8.88672 11.3594C8.75911 11.4505 8.57682 11.569 8.33984 11.7148C8.12109 11.8607 7.89323 11.9701 7.65625 12.043C7.4375 12.0977 7.21875 12.125 7 12.125C6.78125 12.125 6.55339 12.0977 6.31641 12.043C6.09766 11.9701 5.86979 11.8607 5.63281 11.7148C5.41406 11.569 5.24089 11.4505 5.11328 11.3594C4.98568 11.2682 4.80339 11.1315 4.56641 10.9492C4.32943 10.7487 4.20182 10.6302 4.18359 10.5938C4.11068 10.5391 3.91927 10.3932 3.60938 10.1562C3.29948 9.90104 2.89844 9.58203 2.40625 9.19922C1.93229 8.79818 1.56771 8.4974 1.3125 8.29688V13.2734C1.3125 13.3828 1.36719 13.4375 1.47656 13.4375H12.5234C12.6328 13.4375 12.6875 13.3828 12.6875 13.2734ZM4.8125 6C4.6849 6 4.57552 5.96354 4.48438 5.89062C4.41146 5.79948 4.375 5.6901 4.375 5.5625V5.125C4.375 4.9974 4.41146 4.89714 4.48438 4.82422C4.57552 4.73307 4.6849 4.6875 4.8125 4.6875H9.1875C9.3151 4.6875 9.41536 4.73307 9.48828 4.82422C9.57943 4.89714 9.625 4.9974 9.625 5.125V5.5625C9.625 5.6901 9.57943 5.79948 9.48828 5.89062C9.41536 5.96354 9.3151 6 9.1875 6H4.8125ZM9.625 7.75C9.625 7.8776 9.57943 7.98698 9.48828 8.07812C9.41536 8.15104 9.3151 8.1875 9.1875 8.1875H4.8125C4.6849 8.1875 4.57552 8.15104 4.48438 8.07812C4.41146 7.98698 4.375 7.8776 4.375 7.75V7.3125C4.375 7.1849 4.41146 7.08464 4.48438 7.01172C4.57552 6.92057 4.6849 6.875 4.8125 6.875H9.1875C9.3151 6.875 9.41536 6.92057 9.48828 7.01172C9.57943 7.08464 9.625 7.1849 9.625 7.3125V7.75Z"
    fill="#4F4F4F" />
</svg>