<svg width="18" height="12" viewBox="0 0 18 12" fill="none" xmlns="http://www.w3.org/2000/svg">
  <path
    d="M4.625 4.82812C4.71615 5.21094 4.78906 5.51172 4.84375 5.73047L5.14453 6.74219H4.10547L4.40625 5.73047L4.625 4.82812ZM17.0938 1.875C17.276 1.875 17.431 1.9388 17.5586 2.06641C17.6862 2.19401 17.75 2.34896 17.75 2.53125V9.96875C17.75 10.151 17.6862 10.306 17.5586 10.4336C17.431 10.5612 17.276 10.625 17.0938 10.625H0.90625C0.723958 10.625 0.56901 10.5612 0.441406 10.4336C0.313802 10.306 0.25 10.151 0.25 9.96875V2.53125C0.25 2.34896 0.313802 2.19401 0.441406 2.06641C0.56901 1.9388 0.723958 1.875 0.90625 1.875H17.0938ZM6.62109 8.875C6.73047 8.875 6.82161 8.82943 6.89453 8.73828C6.96745 8.64714 6.98568 8.54688 6.94922 8.4375L5.39062 3.84375C5.33594 3.69792 5.22656 3.625 5.0625 3.625H4.1875C4.02344 3.625 3.91406 3.69792 3.85938 3.84375L2.30078 8.4375C2.28255 8.51042 2.28255 8.58333 2.30078 8.65625C2.31901 8.71094 2.35547 8.76562 2.41016 8.82031C2.48307 8.85677 2.55599 8.875 2.62891 8.875H3.23047C3.39453 8.875 3.50391 8.79297 3.55859 8.62891L3.80469 7.78125H5.44531L5.69141 8.62891C5.74609 8.79297 5.85547 8.875 6.01953 8.875H6.62109ZM16.6562 9.53125V2.96875H9V9.53125H16.6562ZM10.4219 5.48438C10.3307 5.48438 10.2487 5.45703 10.1758 5.40234C10.1211 5.32943 10.0938 5.2474 10.0938 5.15625V4.71875C10.0938 4.6276 10.1211 4.55469 10.1758 4.5C10.2487 4.42708 10.3307 4.39062 10.4219 4.39062H12.1719V3.95312C12.1719 3.86198 12.1992 3.78906 12.2539 3.73438C12.3268 3.66146 12.4089 3.625 12.5 3.625H12.9375C13.0286 3.625 13.1016 3.66146 13.1562 3.73438C13.2292 3.78906 13.2656 3.86198 13.2656 3.95312V4.39062H15.0156C15.1068 4.39062 15.1797 4.42708 15.2344 4.5C15.3073 4.55469 15.3438 4.6276 15.3438 4.71875V5.15625C15.3438 5.2474 15.3073 5.32943 15.2344 5.40234C15.1797 5.45703 15.1068 5.48438 15.0156 5.48438H14.6328C14.4323 6.04948 14.1042 6.61458 13.6484 7.17969C13.612 7.21615 13.5664 7.26172 13.5117 7.31641C13.7669 7.53516 14.013 7.72656 14.25 7.89062C14.4323 8 14.4688 8.14583 14.3594 8.32812L14.1406 8.71094C14.0312 8.91146 13.8763 8.94792 13.6758 8.82031C13.3477 8.60156 13.0378 8.35547 12.7461 8.08203C12.418 8.35547 12.0898 8.60156 11.7617 8.82031C11.5612 8.94792 11.4062 8.91146 11.2969 8.71094L11.0781 8.32812C10.9688 8.14583 11.0052 8 11.1875 7.89062C11.4609 7.70833 11.7161 7.51693 11.9531 7.31641C11.7161 7.02474 11.5065 6.74219 11.3242 6.46875C11.1966 6.28646 11.2331 6.13151 11.4336 6.00391L11.7891 5.78516C11.9714 5.67578 12.1263 5.70312 12.2539 5.86719C12.3815 6.08594 12.5456 6.30469 12.7461 6.52344C13.0378 6.17708 13.2747 5.83073 13.457 5.48438H10.4219Z"
    fill="#4F4F4F" />
</svg>