<svg width="18" height="14" viewBox="0 0 18 14" fill="none" xmlns="http://www.w3.org/2000/svg">
  <path
    d="M16.9434 9.07422L17.6543 9.48438C17.7454 9.53906 17.7819 9.62109 17.7637 9.73047C17.5814 10.3138 17.2715 10.8333 16.834 11.2891C16.7611 11.362 16.679 11.3802 16.5879 11.3438L15.9043 10.9336C15.5944 11.1888 15.2572 11.3802 14.8926 11.5078V12.3281C14.8926 12.4375 14.8379 12.5013 14.7285 12.5195C14.127 12.6471 13.5254 12.6471 12.9238 12.5195C12.8145 12.5013 12.7598 12.4375 12.7598 12.3281V11.5078C12.3952 11.3802 12.0579 11.1888 11.748 10.9336L11.0371 11.3438C10.946 11.3802 10.8639 11.362 10.791 11.2891C10.3717 10.8333 10.071 10.3138 9.88867 9.73047C9.85221 9.62109 9.88867 9.53906 9.99805 9.48438L10.6816 9.07422C10.6087 8.69141 10.6087 8.30859 10.6816 7.92578L9.99805 7.51562C9.9069 7.46094 9.87044 7.37891 9.88867 7.26953C10.071 6.6862 10.3717 6.16667 10.791 5.71094C10.8639 5.63802 10.946 5.61979 11.0371 5.65625L11.748 6.06641C12.0579 5.8112 12.3952 5.61979 12.7598 5.49219V4.67188C12.7598 4.5625 12.8145 4.4987 12.9238 4.48047C13.5254 4.35286 14.127 4.35286 14.7285 4.48047C14.8379 4.4987 14.8926 4.5625 14.8926 4.67188V5.49219C15.2572 5.61979 15.5944 5.8112 15.9043 6.06641L16.5879 5.65625C16.679 5.61979 16.7611 5.63802 16.834 5.71094C17.2715 6.16667 17.5814 6.6862 17.7637 7.26953C17.7819 7.37891 17.7454 7.46094 17.6543 7.51562L16.9434 7.92578C17.0163 8.30859 17.0163 8.69141 16.9434 9.07422ZM12.8965 9.42969C13.1517 9.6849 13.4616 9.8125 13.8262 9.8125C14.1908 9.8125 14.5007 9.6849 14.7559 9.42969C15.0111 9.17448 15.1387 8.86458 15.1387 8.5C15.1387 8.13542 15.0111 7.82552 14.7559 7.57031C14.5007 7.3151 14.1908 7.1875 13.8262 7.1875C13.4616 7.1875 13.1517 7.3151 12.8965 7.57031C12.6413 7.82552 12.5137 8.13542 12.5137 8.5C12.5137 8.86458 12.6413 9.17448 12.8965 9.42969ZM4.11914 5.35547C3.77279 5.70182 3.36263 5.875 2.88867 5.875C2.41471 5.875 2.00456 5.70182 1.6582 5.35547C1.31185 5.00911 1.13867 4.59896 1.13867 4.125C1.13867 3.65104 1.31185 3.24089 1.6582 2.89453C2.00456 2.54818 2.41471 2.375 2.88867 2.375C3.36263 2.375 3.77279 2.54818 4.11914 2.89453C4.46549 3.24089 4.63867 3.65104 4.63867 4.125C4.63867 4.59896 4.46549 5.00911 4.11914 5.35547ZM9.01367 6.75C8.17513 6.75 7.45508 6.44922 6.85352 5.84766C6.25195 5.24609 5.95117 4.52604 5.95117 3.6875C5.95117 2.84896 6.24284 2.12891 6.82617 1.52734C7.42773 0.925781 8.14779 0.625 8.98633 0.625C9.8431 0.625 10.5723 0.925781 11.1738 1.52734C11.7754 2.12891 12.0762 2.84896 12.0762 3.6875C12.0762 4.14323 11.9759 4.58073 11.7754 5C11.7572 5 11.7389 5.00911 11.7207 5.02734C11.7207 5.02734 11.7116 5.03646 11.6934 5.05469L11.4746 4.91797C11.3105 4.82682 11.1374 4.78125 10.9551 4.78125C10.6452 4.78125 10.3809 4.89062 10.1621 5.10938C9.74284 5.5651 9.41471 6.10286 9.17773 6.72266C9.15951 6.72266 9.13216 6.73177 9.0957 6.75H9.01367ZM11.8848 12.0547V12.3281C11.8848 12.5104 11.9395 12.6927 12.0488 12.875H5.07617C4.71159 12.875 4.40169 12.7474 4.14648 12.4922C3.89128 12.237 3.76367 11.9271 3.76367 11.5625V10.7695C3.76367 9.89453 4.07357 9.15625 4.69336 8.55469C5.31315 7.9349 6.05143 7.625 6.9082 7.625H7.1543C7.75586 7.91667 8.37565 8.0625 9.01367 8.0625C9.05013 8.0625 9.11393 8.0625 9.20508 8.0625C9.24154 8.04427 9.26888 8.03516 9.28711 8.03516C9.36003 8.1263 9.45117 8.20833 9.56055 8.28125L9.7793 8.39062C9.76107 8.46354 9.76107 8.53646 9.7793 8.60938C9.7793 8.60938 9.77018 8.60938 9.75195 8.60938C9.11393 8.9375 8.88607 9.39323 9.06836 9.97656C9.28711 10.6875 9.65169 11.3255 10.1621 11.8906C10.3809 12.1094 10.6452 12.2188 10.9551 12.2188C11.1556 12.2188 11.4017 12.1367 11.6934 11.9727H11.7207L11.8848 12.0547ZM4.99414 7.26953C4.44727 7.5612 3.99154 7.97135 3.62695 8.5C3.26237 9.02865 3.03451 9.61198 2.94336 10.25H1.13867C0.901693 10.25 0.692057 10.168 0.509766 10.0039C0.345703 9.82161 0.263672 9.61198 0.263672 9.375V8.5C0.263672 8.02604 0.436849 7.61589 0.783203 7.26953C1.12956 6.92318 1.53971 6.75 2.01367 6.75H3.76367C4.23763 6.75 4.64779 6.92318 4.99414 7.26953Z"
    fill="#4F4F4F" />
</svg>