<svg width="18" height="15" viewBox="0 0 18 15" fill="none" xmlns="http://www.w3.org/2000/svg">
  <path
    d="M9.16406 7.47656C8.39844 8.24219 7.46875 8.625 6.375 8.625C5.28125 8.625 4.35156 8.24219 3.58594 7.47656C2.82031 6.71094 2.4375 5.78125 2.4375 4.6875C2.4375 3.59375 2.82031 2.66406 3.58594 1.89844C4.35156 1.13281 5.28125 0.75 6.375 0.75C7.46875 0.75 8.39844 1.13281 9.16406 1.89844C9.92969 2.66406 10.3125 3.59375 10.3125 4.6875C10.3125 5.78125 9.92969 6.71094 9.16406 7.47656ZM8.23438 2.82812C7.72396 2.31771 7.10417 2.0625 6.375 2.0625C5.64583 2.0625 5.02604 2.31771 4.51562 2.82812C4.00521 3.33854 3.75 3.95833 3.75 4.6875C3.75 5.41667 4.00521 6.03646 4.51562 6.54688C5.02604 7.05729 5.64583 7.3125 6.375 7.3125C7.10417 7.3125 7.72396 7.05729 8.23438 6.54688C8.74479 6.03646 9 5.41667 9 4.6875C9 3.95833 8.74479 3.33854 8.23438 2.82812ZM8.83594 9.0625C9.83854 9.0625 10.6953 9.42708 11.4062 10.1562C12.1354 10.8672 12.5 11.724 12.5 12.7266V13.4375C12.5 13.8021 12.3724 14.112 12.1172 14.3672C11.862 14.6224 11.5521 14.75 11.1875 14.75H1.5625C1.19792 14.75 0.888021 14.6224 0.632812 14.3672C0.377604 14.112 0.25 13.8021 0.25 13.4375V12.7266C0.25 11.724 0.605469 10.8672 1.31641 10.1562C2.04557 9.42708 2.91146 9.0625 3.91406 9.0625C4.15104 9.0625 4.4974 9.13542 4.95312 9.28125C5.42708 9.42708 5.90104 9.5 6.375 9.5C6.84896 9.5 7.32292 9.42708 7.79688 9.28125C8.27083 9.13542 8.61719 9.0625 8.83594 9.0625ZM11.1875 13.4375V12.7266C11.1875 12.0885 10.9505 11.5417 10.4766 11.0859C10.0208 10.612 9.47396 10.375 8.83594 10.375C8.78125 10.375 8.48958 10.4479 7.96094 10.5938C7.45052 10.7396 6.92188 10.8125 6.375 10.8125C5.82812 10.8125 5.29036 10.7396 4.76172 10.5938C4.2513 10.4479 3.96875 10.375 3.91406 10.375C3.27604 10.375 2.72005 10.612 2.24609 11.0859C1.79036 11.5417 1.5625 12.0885 1.5625 12.7266V13.4375H11.1875ZM17.3125 6.65625C17.4401 6.65625 17.5404 6.70182 17.6133 6.79297C17.7044 6.86589 17.75 6.96615 17.75 7.09375V7.53125C17.75 7.65885 17.7044 7.76823 17.6133 7.85938C17.5404 7.93229 17.4401 7.96875 17.3125 7.96875H15.3438V9.9375C15.3438 10.0651 15.2982 10.1745 15.207 10.2656C15.1341 10.3385 15.0339 10.375 14.9062 10.375H14.4688C14.3411 10.375 14.2318 10.3385 14.1406 10.2656C14.0677 10.1745 14.0312 10.0651 14.0312 9.9375V7.96875H12.0625C11.9349 7.96875 11.8255 7.93229 11.7344 7.85938C11.6615 7.76823 11.625 7.65885 11.625 7.53125V7.09375C11.625 6.96615 11.6615 6.86589 11.7344 6.79297C11.8255 6.70182 11.9349 6.65625 12.0625 6.65625H14.0312V4.6875C14.0312 4.5599 14.0677 4.45964 14.1406 4.38672C14.2318 4.29557 14.3411 4.25 14.4688 4.25H14.9062C15.0339 4.25 15.1341 4.29557 15.207 4.38672C15.2982 4.45964 15.3438 4.5599 15.3438 4.6875V6.65625H17.3125Z"
    fill="#4F4F4F" />
</svg>