<svg width="72" height="72" viewBox="0 0 72 72" fill="none" xmlns="http://www.w3.org/2000/svg">
<g clip-path="url(#clip0_785_276)">
<path d="M36 8.09131C20.5607 8.09131 8 20.652 8 36.0913C9.40766 73.1861 62.598 73.176 64 36.091C64 20.6519 51.4393 8.09131 36 8.09131ZM47.7039 37.2513L31.8882 53.067C30.8251 54.1392 28.9333 53.2902 29.0975 51.7257L30.6523 37.7319H25.4563C25.1317 37.732 24.8145 37.6358 24.5447 37.4555C24.2748 37.2752 24.0645 37.019 23.9404 36.7192C23.8162 36.4194 23.7837 36.0895 23.847 35.7712C23.9104 35.4529 24.0667 35.1606 24.2962 34.9312L40.112 19.1155C40.3523 18.8751 40.6614 18.7153 40.9966 18.6582C41.3317 18.6011 41.6763 18.6496 41.9827 18.7969C42.2891 18.9442 42.5421 19.1831 42.7069 19.4804C42.8717 19.7778 42.9401 20.1189 42.9025 20.4568L41.3477 34.4506H46.5438C46.8682 34.4506 47.1855 34.5468 47.4553 34.727C47.7251 34.9073 47.9354 35.1636 48.0596 35.4633C48.1838 35.7631 48.2162 36.093 48.1529 36.4113C48.0896 36.7296 47.9334 37.0219 47.7039 37.2513Z" fill="#3267E3"/>
<path d="M38.2922 37.1852C38.1383 37.0133 38.0224 36.8108 37.9521 36.5911C37.8817 36.3713 37.8586 36.1392 37.8841 35.9099L39.1248 24.7427L29.417 34.4504H32.4855C32.7162 34.4504 32.9443 34.499 33.155 34.5932C33.3656 34.6874 33.554 34.8249 33.7079 34.9968C33.8618 35.1687 33.9777 35.3712 34.048 35.5909C34.1183 35.8107 34.1415 36.0428 34.116 36.2721L32.8753 47.4393L42.5831 37.7316H39.5147C39.2839 37.7316 39.0558 37.683 38.8451 37.5888C38.6345 37.4947 38.446 37.3571 38.2922 37.1852Z" fill="#3267E3"/>
</g>
<defs>
<clipPath id="clip0_785_276">
<rect width="56" height="56" fill="white" transform="translate(8 8)"/>
</clipPath>
</defs>
</svg>
