<svg width="18" height="15" viewBox="0 0 18 15" fill="none" xmlns="http://www.w3.org/2000/svg">
  <path
    d="M10.0801 12.5898L13.8535 8.84375L15.7949 10.7852L12.0488 14.5586L10.3809 14.75C10.235 14.7682 10.1074 14.7227 9.99805 14.6133C9.9069 14.5221 9.87044 14.4036 9.88867 14.2578L10.0801 12.5898ZM17.5723 8.10547C17.6999 8.23307 17.7637 8.38802 17.7637 8.57031C17.7637 8.7526 17.6999 8.90755 17.5723 9.03516L16.4238 10.1562L14.4824 8.21484L15.6035 7.06641C15.7311 6.9388 15.8861 6.875 16.0684 6.875C16.2507 6.875 16.4056 6.9388 16.5332 7.06641L17.5723 8.10547ZM6.38867 8.625C5.31315 8.625 4.38346 8.24219 3.59961 7.47656C2.83398 6.69271 2.45117 5.76302 2.45117 4.6875C2.45117 3.59375 2.83398 2.66406 3.59961 1.89844C4.36523 1.13281 5.29492 0.75 6.38867 0.75C7.46419 0.75 8.38477 1.14193 9.15039 1.92578C9.93424 2.69141 10.3262 3.61198 10.3262 4.6875C10.3262 5.78125 9.94336 6.71094 9.17773 7.47656C8.41211 8.24219 7.48242 8.625 6.38867 8.625ZM6.2793 2.0625C5.82357 2.08073 5.4043 2.20833 5.02148 2.44531C4.6569 2.66406 4.35612 2.96484 4.11914 3.34766C3.90039 3.71224 3.7819 4.1224 3.76367 4.57812C3.72721 5.34375 3.98242 6 4.5293 6.54688C5.07617 7.09375 5.73242 7.34896 6.49805 7.3125C7.17253 7.27604 7.74674 7.02083 8.2207 6.54688C8.71289 6.05469 8.97721 5.47135 9.01367 4.79688C9.05013 4.03125 8.79492 3.375 8.24805 2.82812C7.70117 2.28125 7.04492 2.02604 6.2793 2.0625ZM3.92773 10.375C3.28971 10.375 2.73372 10.612 2.25977 11.0859C1.80404 11.5417 1.57617 12.0885 1.57617 12.7266V13.4375H8.6582C8.58529 14.0938 8.57617 14.5312 8.63086 14.75H1.57617C1.21159 14.75 0.901693 14.6224 0.646484 14.3672C0.391276 14.112 0.263672 13.8021 0.263672 13.4375V12.7266C0.263672 11.724 0.619141 10.8672 1.33008 10.1562C2.05924 9.42708 2.92513 9.0625 3.92773 9.0625C4.16471 9.0625 4.51107 9.13542 4.9668 9.28125C5.44076 9.42708 5.91471 9.5 6.38867 9.5C6.86263 9.5 7.33659 9.42708 7.81055 9.28125C8.28451 9.13542 8.63086 9.0625 8.84961 9.0625C9.63346 9.0625 10.3626 9.30859 11.0371 9.80078L10.0801 10.7305C9.69727 10.4935 9.28711 10.375 8.84961 10.375C8.79492 10.375 8.50326 10.4479 7.97461 10.5938C7.46419 10.7396 6.93555 10.8125 6.38867 10.8125C5.8418 10.8125 5.30404 10.7396 4.77539 10.5938C4.26497 10.4479 3.98242 10.375 3.92773 10.375Z"
    fill="#4F4F4F" />
</svg>