<svg width="24" height="24" viewBox="0 0 24 24" fill="none" xmlns="http://www.w3.org/2000/svg">
  <g clip-path="url(#clip0_14_2628)">
    <path
      d="M0.403103 11.5357L14.6173 9.5374V5.63404C14.6173 5.37515 14.8272 5.16528 15.086 5.16528C15.1875 5.16528 15.2862 5.19819 15.3673 5.25904L23.8125 11.6253C24.0196 11.7806 24.0616 12.0744 23.9062 12.2815C23.8795 12.317 23.848 12.3486 23.8125 12.3753L15.3673 18.741C15.1602 18.8964 14.8664 18.8544 14.711 18.6473C14.6502 18.5661 14.6173 18.4674 14.6173 18.366V14.6844L0.396072 12.4629C0.140318 12.4228 -0.0344372 12.1828 0.0057354 11.9271C0.0377522 11.7235 0.199053 11.5646 0.403103 11.5357Z"
      fill="white" />
  </g>
  <defs>
    <clipPath id="clip0_14_2628">
      <rect width="24" height="24" fill="white" transform="matrix(-1 0 0 1 24 0)" />
    </clipPath>
  </defs>
</svg>