<svg width="89" height="20" viewBox="0 0 89 20" fill="none" xmlns="http://www.w3.org/2000/svg">
  <path d="M7.31702 19.4558V5.51248H0V0.540439H20.7682V5.51248H13.2587V19.4558H7.31702Z" fill="black" />
  <path
    d="M23.9647 19.4558V0.540439H41.1295V5.26928H29.6588V14.727H41.6246V19.4558H23.9647ZM27.0181 12.1058V7.67424H40.1117V12.1058H27.0181Z"
    fill="black" />
  <path
    d="M56.469 19.726C54.7636 19.726 53.1865 19.4918 51.7377 19.0235C50.289 18.5551 49.0236 17.8795 47.9417 16.9968C46.8597 16.1141 46.0161 15.0692 45.411 13.8623C44.8241 12.6553 44.5307 11.3222 44.5307 9.86301C44.5307 8.40383 44.8241 7.07074 45.411 5.86376C46.0161 4.65678 46.8505 3.61193 47.9142 2.72922C48.9961 1.8465 50.2615 1.17095 51.7102 0.702571C53.1589 0.23419 54.7452 0 56.469 0C57.5877 0 58.6696 0.117095 59.7149 0.351286C60.7602 0.567461 61.7413 0.882717 62.6582 1.29705C63.5935 1.71139 64.4187 2.20679 65.1339 2.78326L61.723 7.18784C61.3745 6.86358 60.9436 6.55733 60.4301 6.26909C59.9166 5.96284 59.3115 5.71965 58.6146 5.5395C57.9178 5.34134 57.1109 5.24226 56.194 5.24226C55.4971 5.24226 54.8186 5.34134 54.1584 5.5395C53.5165 5.71965 52.9205 6.00788 52.3704 6.4042C51.8386 6.78251 51.4168 7.26891 51.105 7.86339C50.7933 8.45787 50.6374 9.15143 50.6374 9.94408C50.6374 10.6827 50.8025 11.3492 51.1326 11.9437C51.4626 12.5202 51.9211 13.0066 52.5079 13.4029C53.0948 13.7812 53.7641 14.0694 54.516 14.2676C55.2679 14.4658 56.0564 14.5648 56.8816 14.5648C57.7619 14.5648 58.5504 14.4477 59.2473 14.2135C59.9442 13.9613 60.5585 13.6641 61.0903 13.3218C61.6221 12.9615 62.0806 12.6373 62.4657 12.349L65.2439 16.7536C64.7121 17.204 63.9878 17.6634 63.0709 18.1317C62.1723 18.5821 61.1545 18.9604 60.0175 19.2667C58.8805 19.5729 57.6977 19.726 56.469 19.726Z"
    fill="black" />
  <path
    d="M82.5428 19.4558V0.540439H88.4844V19.4558H82.5428ZM68.2939 19.4558V0.540439H74.2355V19.4558H68.2939ZM70.522 12.6463L70.577 7.56615H85.8987V12.6463H70.522Z"
    fill="black" />
</svg>