<svg width="89" height="20" viewBox="0 0 89 20" fill="none" xmlns="http://www.w3.org/2000/svg">
  <path d="M7.48894 19.7297V5.7864H0.154907V0.814364H20.9714V5.7864H13.4444V19.7297H7.48894Z" fill="white" />
  <path
    d="M24.1753 19.7297V0.814364H41.38V5.54321H29.8826V15.0009H41.8763V19.7297H24.1753ZM27.2358 12.3798V7.94816H40.3598V12.3798H27.2358Z"
    fill="white" />
  <path
    d="M56.7552 20C55.0458 20 53.465 19.7658 52.0129 19.2974C50.5608 18.829 49.2925 18.1535 48.208 17.2707C47.1235 16.388 46.278 15.3432 45.6714 14.1362C45.0832 12.9292 44.7891 11.5961 44.7891 10.1369C44.7891 8.67775 45.0832 7.34467 45.6714 6.13769C46.278 4.93071 47.1143 3.88586 48.1804 3.00314C49.2649 2.12043 50.5332 1.44488 51.9853 0.976497C53.4374 0.508116 55.0274 0.273926 56.7552 0.273926C57.8764 0.273926 58.9609 0.391021 60.0086 0.625212C61.0564 0.841387 62.0397 1.15664 62.9588 1.57098C63.8962 1.98532 64.7234 2.48072 65.4402 3.05719L62.0214 7.46177C61.6721 7.1375 61.2402 6.83125 60.7255 6.54302C60.2108 6.23677 59.6042 5.99357 58.9058 5.81343C58.2073 5.61527 57.3985 5.51619 56.4795 5.51619C55.781 5.51619 55.1009 5.61527 54.4392 5.81343C53.7958 5.99357 53.1985 6.28181 52.647 6.67813C52.114 7.05644 51.6912 7.54283 51.3787 8.13732C51.0663 8.7318 50.91 9.42536 50.91 10.218C50.91 10.9566 51.0755 11.6231 51.4063 12.2176C51.7372 12.7941 52.1967 13.2805 52.7849 13.6768C53.3731 14.0551 54.044 14.3434 54.7976 14.5415C55.5512 14.7397 56.3416 14.8388 57.1688 14.8388C58.0511 14.8388 58.8414 14.7217 59.5399 14.4875C60.2384 14.2353 60.8542 13.938 61.3872 13.5958C61.9203 13.2355 62.3798 12.9112 62.7658 12.623L65.5505 17.0275C65.0175 17.4779 64.2914 17.9373 63.3724 18.4057C62.4717 18.856 61.4515 19.2343 60.3119 19.5406C59.1723 19.8468 57.9867 20 56.7552 20Z"
    fill="white" />
  <path
    d="M82.8896 19.7297V0.814364H88.845V19.7297H82.8896ZM68.6075 19.7297V0.814364H74.563V19.7297H68.6075ZM70.8408 12.9202L70.8959 7.84007H86.2533V12.9202H70.8408Z"
    fill="white" />
</svg>