<svg width="72" height="72" viewBox="0 0 72 72" fill="none" xmlns="http://www.w3.org/2000/svg">
<g clip-path="url(#clip0_686_19463)">
<path d="M51.3802 29.2545C51.2291 29.0653 51.046 29.1025 50.9501 29.1411C50.8697 29.1737 50.6855 29.2778 50.711 29.5388C50.7416 29.8521 50.7588 30.1716 50.7621 30.4885C50.7758 31.803 50.2485 33.0907 49.3155 34.0216C48.3884 34.9465 47.1691 35.4448 45.8708 35.4304C44.0974 35.4077 42.6266 34.4827 41.6171 32.7554C40.7825 31.3271 41.1493 29.4849 41.5377 27.5344C41.765 26.3927 42.0001 25.2121 42.0001 24.0885C42.0001 15.3397 36.1185 10.2923 32.6126 8.06223C32.5401 8.01619 32.4711 8 32.41 8C32.3105 8 32.2318 8.04287 32.193 8.06912C32.1177 8.12009 31.9973 8.23625 32.036 8.44187C33.3761 15.558 29.3791 19.838 25.1473 24.3692C20.7855 29.0398 15.8416 34.3337 15.8416 43.8812C15.8416 54.9749 24.8669 64.0002 35.9606 64.0002C45.0947 64.0002 53.1481 57.632 55.5447 48.5138C57.179 42.2966 55.4664 34.377 51.3802 29.2545ZM36.4625 59.7058C33.6846 59.8325 31.0428 58.8362 29.0249 56.9068C27.0287 54.998 25.8838 52.3342 25.8838 49.5983C25.8838 44.4641 27.8468 40.695 33.1268 35.6913C33.2132 35.6094 33.3017 35.5835 33.3788 35.5835C33.4487 35.5835 33.5093 35.6048 33.551 35.6248C33.6388 35.6672 33.7832 35.772 33.7637 35.9986C33.5749 38.1954 33.5782 40.0188 33.7733 41.4183C34.2721 44.9933 36.8891 47.3952 40.2857 47.3952C41.9511 47.3952 43.5373 46.7685 44.7524 45.6305C44.7993 45.5854 44.8565 45.5525 44.9191 45.5346C44.9816 45.5168 45.0476 45.5145 45.1112 45.528C45.1912 45.5453 45.2983 45.5943 45.3544 45.7296C45.8582 46.9459 46.1156 48.2371 46.1196 49.567C46.1356 54.9182 41.8035 59.4665 36.4625 59.7058Z" fill="#3267E3"/>
</g>
<defs>
<clipPath id="clip0_686_19463">
<rect width="56" height="56" fill="white" transform="translate(8 8)"/>
</clipPath>
</defs>
</svg>
