<svg width="56" height="57" viewBox="0 0 56 57" fill="none" xmlns="http://www.w3.org/2000/svg">
<path d="M8.99498 18.341H36.9162L44.4412 10.816H38.6662C38.6539 10.0153 38.6751 8.37448 38.6662 7.57859C38.6637 6.85302 38.3743 6.15789 37.8612 5.64483C37.3482 5.13176 36.6531 4.8424 35.9275 4.83984H20.0725C19.3469 4.84241 18.6518 5.13177 18.1387 5.64484C17.6257 6.1579 17.3363 6.85302 17.3337 7.57859C17.3311 8.37449 17.3356 10.0145 17.3337 10.8161H10.85C10.1262 10.817 9.43237 11.1049 8.9206 11.6167C8.40882 12.1285 8.1209 12.8223 8.11998 13.5461V17.4661C8.11884 17.5813 8.1407 17.6956 8.18427 17.8023C8.22785 17.9089 8.29226 18.0058 8.37374 18.0873C8.45521 18.1688 8.55212 18.2332 8.6588 18.2768C8.76547 18.3203 8.87976 18.3422 8.99498 18.341ZM19.0837 7.57854C19.0849 7.31668 19.1895 7.06589 19.3747 6.88072C19.5598 6.69556 19.8106 6.591 20.0725 6.58979H35.9275C36.1893 6.591 36.4401 6.69556 36.6253 6.88072C36.8105 7.06589 36.915 7.31668 36.9162 7.57854V10.746H19.0837C19.0922 9.95683 19.0776 8.36332 19.0837 7.57854Z" fill="#3267E3"/>
<path d="M37.7038 20.0913C36.3902 21.418 6.30399 51.5126 5.02251 52.7726C4.22724 53.5658 5.44293 54.8356 6.25637 54.0063L12.3638 47.8988C12.5867 49.0975 13.2226 50.1802 14.1609 50.9587C15.0993 51.7372 16.2808 52.1623 17.5 52.1601H38.5C39.8524 52.1622 41.1531 51.6402 42.1287 50.7036C43.1044 49.7671 43.6793 48.4889 43.7325 47.1376L44.8875 20.0913C43.8495 20.0981 37.7038 20.0913 37.7038 20.0913ZM36.6188 23.6438C36.8467 23.6625 37.0586 23.7685 37.2102 23.9397C37.3619 24.1109 37.4415 24.334 37.4325 24.5626L36.3913 46.7613C36.3794 46.9932 36.276 47.2108 36.1037 47.3665C35.9314 47.5221 35.7044 47.6031 35.4726 47.5915C35.2407 47.5799 35.0229 47.4767 34.867 47.3047C34.7112 47.1326 34.63 46.9057 34.6413 46.6738L35.6738 24.5888L36.6188 23.6438ZM28.875 31.3876V46.7176C28.875 46.9496 28.7828 47.1722 28.6187 47.3363C28.4546 47.5004 28.2321 47.5926 28 47.5926C27.768 47.5926 27.5454 47.5004 27.3813 47.3363C27.2172 47.1722 27.125 46.9496 27.125 46.7176V33.1376L28.875 31.3876ZM21.0088 39.2538L21.3588 46.6738C21.3665 46.9036 21.2836 47.1272 21.128 47.2964C20.9723 47.4657 20.7564 47.5669 20.5268 47.5784C20.2971 47.5899 20.0722 47.5106 19.9005 47.3578C19.7287 47.2049 19.624 46.9907 19.6088 46.7612L19.3375 40.9251L21.0088 39.2538Z" fill="#3267E3"/>
<path d="M35.1662 20.0913H11.1125C11.1125 20.0913 12.1027 43.1858 12.1011 43.1563C13.1785 42.0755 17.9334 37.3268 19.11 36.1476L18.5675 24.5626C18.5607 24.3327 18.6446 24.1093 18.801 23.9407C18.9575 23.7721 19.1739 23.6719 19.4037 23.6615C19.6335 23.6512 19.8581 23.7316 20.0291 23.8855C20.2 24.0393 20.3036 24.2542 20.3175 24.4838L20.79 34.4676L27.125 28.1326V24.5188C27.125 24.2867 27.2172 24.0642 27.3813 23.9001C27.5454 23.736 27.7679 23.6438 28 23.6438C28.2321 23.6438 28.4546 23.736 28.6187 23.9001C28.7828 24.0642 28.875 24.2867 28.875 24.5188V26.3826L35.1662 20.0913Z" fill="#3267E3"/>
<path d="M53.5062 5.52253C53.4253 5.44141 53.3291 5.37704 53.2233 5.33312C53.1174 5.28921 53.0039 5.2666 52.8893 5.2666C52.7747 5.2666 52.6613 5.28921 52.5554 5.33312C52.4496 5.37704 52.3534 5.44141 52.2725 5.52253C52.2376 5.50597 47.8468 10.0474 47.8013 9.94128C45.0265 12.7194 42.176 15.5769 39.4012 18.3413H47.005C47.1202 18.3424 47.2345 18.3206 47.3412 18.277C47.4479 18.2334 47.5448 18.169 47.6263 18.0875C47.7077 18.0061 47.7721 17.9092 47.8157 17.8025C47.8593 17.6958 47.8811 17.5815 47.88 17.4663C47.8213 16.7121 48.0437 13.2099 47.6963 12.5663C48.575 11.6877 52.5526 7.70989 53.5063 6.75628C53.5874 6.67533 53.6518 6.57917 53.6957 6.47332C53.7396 6.36746 53.7622 6.25399 53.7621 6.13939C53.7621 6.02479 53.7395 5.91132 53.6956 5.80548C53.6517 5.69963 53.5873 5.60348 53.5062 5.52253Z" fill="#3267E3"/>
</svg>
