<svg width="72" height="72" viewBox="0 0 72 72" fill="none" xmlns="http://www.w3.org/2000/svg">
<path fill-rule="evenodd" clip-rule="evenodd" d="M39.6443 42.7504L26.1396 34.8824C25.2539 34.4994 24.2993 34.3013 23.3342 34.3004C22.3692 34.2995 21.4142 34.4958 20.5278 34.8773L16.177 36.6746V53.2143C18.33 52.5772 20.3641 52.696 22.5829 53.8713L30.4141 58.0198C32.1969 58.9645 34.0281 59.2747 35.9778 58.7526L60.0715 52.297C61.1082 52.0192 61.9922 51.3409 62.5288 50.4114C63.0655 49.4819 63.211 48.3772 62.9332 47.3405C62.6554 46.3037 61.9771 45.4197 61.0476 44.8831C60.118 44.3464 59.0134 44.201 57.9766 44.4788L43.2844 48.4151C43.1637 48.9186 42.9698 49.4018 42.7088 49.8491C41.9922 51.0721 40.8206 51.9619 39.4501 52.3239C38.0795 52.686 36.6214 52.491 35.3942 51.7814L28.1797 47.5784C28.0805 47.521 27.9936 47.4446 27.9239 47.3535C27.8542 47.2625 27.8032 47.1586 27.7737 47.0478C27.7442 46.9371 27.7367 46.8216 27.7519 46.7079C27.767 46.5943 27.8043 46.4848 27.8618 46.3856C27.9192 46.2864 27.9957 46.1994 28.0867 46.1298C28.1778 46.0601 28.2816 46.0091 28.3924 45.9795C28.5032 45.95 28.6187 45.9426 28.7323 45.9577C28.8459 45.9728 28.9555 46.0102 29.0547 46.0676L36.2685 50.2706C38.0753 51.3232 40.1413 50.6524 41.2294 48.9215C41.5314 48.4124 41.73 47.8487 41.8137 47.2627C41.8975 46.6768 41.8647 46.08 41.7174 45.5067C41.5701 44.9335 41.311 44.3949 40.9552 43.9219C40.5993 43.4489 40.1535 43.0508 39.6435 42.7504H39.6443ZM48.9433 22.4195C48.4828 21.7868 47.7915 21.3611 47.0193 21.2345V20.7215C47.0193 20.4895 46.9271 20.2669 46.763 20.1028C46.5989 19.9387 46.3764 19.8465 46.1443 19.8465C45.9122 19.8465 45.6897 19.9387 45.5256 20.1028C45.3615 20.2669 45.2693 20.4895 45.2693 20.7215V21.2695C44.5639 21.4282 43.9418 21.8414 43.522 22.4301C43.1022 23.0187 42.9142 23.7415 42.994 24.4601C43.0737 25.1788 43.4157 25.8427 43.9543 26.325C44.493 26.8073 45.1906 27.074 45.9136 27.0741H46.3749C46.69 27.0741 46.9921 27.1993 47.2149 27.4221C47.4377 27.6449 47.5629 27.9471 47.5629 28.2622C47.5629 28.5773 47.4377 28.8794 47.2149 29.1022C46.9921 29.325 46.69 29.4502 46.3749 29.4502H45.7254C45.5363 29.4518 45.3497 29.4075 45.1816 29.321C45.0135 29.2345 44.8689 29.1084 44.7603 28.9536C44.693 28.8607 44.608 28.782 44.5102 28.7219C44.4125 28.6618 44.3039 28.6216 44.1906 28.6035C44.0773 28.5854 43.9615 28.5898 43.8499 28.6164C43.7383 28.643 43.633 28.6914 43.5401 28.7587C43.4472 28.8261 43.3684 28.911 43.3083 29.0088C43.2483 29.1065 43.208 29.2152 43.1899 29.3285C43.1534 29.5573 43.2092 29.7913 43.3452 29.9789C43.8058 30.6115 44.4971 31.0372 45.2693 31.1638V31.6767C45.2693 31.9088 45.3615 32.1314 45.5256 32.2955C45.6897 32.4596 45.9122 32.5517 46.1443 32.5517C46.3764 32.5517 46.5989 32.4596 46.763 32.2955C46.9271 32.1314 47.0193 31.9088 47.0193 31.6767V31.1287C47.7248 30.9701 48.347 30.5569 48.7669 29.9682C49.1868 29.3795 49.3748 28.6566 49.295 27.938C49.2152 27.2193 48.8732 26.5553 48.3344 26.073C47.7957 25.5908 47.098 25.3241 46.3749 25.3241H45.9136C45.6005 25.3211 45.3012 25.1946 45.0809 24.9722C44.8605 24.7497 44.7369 24.4492 44.7369 24.1361C44.7369 23.8229 44.8605 23.5224 45.0809 23.2999C45.3012 23.0775 45.6005 22.951 45.9136 22.948H46.5631C46.7522 22.9464 46.9388 22.9908 47.1069 23.0773C47.275 23.1638 47.4196 23.2899 47.5282 23.4446C47.6649 23.6304 47.8695 23.7545 48.0974 23.7901C48.3253 23.8256 48.5579 23.7696 48.7447 23.6343C48.9314 23.4989 49.0571 23.2953 49.0943 23.0677C49.1315 22.8401 49.0773 22.607 48.9433 22.4192V22.4195ZM46.1443 12.9956C43.5329 12.9956 40.98 13.77 38.8087 15.2208C36.6373 16.6716 34.9449 18.7338 33.9456 21.1464C32.9462 23.5591 32.6847 26.2139 33.1941 28.7752C33.7036 31.3365 34.9611 33.6892 36.8077 35.5358C38.6543 37.3824 41.007 38.6399 43.5682 39.1494C46.1295 39.6589 48.7844 39.3974 51.197 38.398C53.6097 37.3987 55.6719 35.7063 57.1227 33.535C58.5736 31.3636 59.348 28.8108 59.348 26.1994C59.348 22.6975 57.9569 19.3391 55.4807 16.8629C53.0045 14.3868 49.6461 12.9956 46.1443 12.9956ZM46.1443 35.827C44.2401 35.827 42.3787 35.2624 40.7954 34.2045C39.2121 33.1466 37.9781 31.6429 37.2494 29.8837C36.5206 28.1244 36.33 26.1886 36.7015 24.321C37.0729 22.4534 37.9899 20.7379 39.3364 19.3914C40.6828 18.0449 42.3983 17.128 44.266 16.7565C46.1336 16.385 48.0694 16.5757 49.8286 17.3044C51.5879 18.0331 53.0915 19.2671 54.1494 20.8504C55.2073 22.4337 55.772 24.2952 55.7719 26.1994C55.7719 28.7528 54.7576 31.2016 52.952 33.0071C51.1465 34.8126 48.6977 35.827 46.1443 35.827ZM14.4271 35.2226V55.3225C14.4264 55.5587 14.3323 55.7851 14.1653 55.9521C13.9983 56.1191 13.772 56.2132 13.5358 56.2139H9.82088C9.58469 56.2132 9.35838 56.1191 9.1914 55.9521C9.02441 55.785 8.93032 55.5587 8.92969 55.3225V35.2226C8.93032 34.9864 9.02442 34.7601 9.19141 34.5931C9.35839 34.4261 9.5847 34.3319 9.82088 34.3313H13.5358C13.772 34.3319 13.9983 34.4261 14.1653 34.5931C14.3323 34.7601 14.4264 34.9864 14.4271 35.2226Z" fill="#3267E3"/>
</svg>
