<svg width="56" height="57" viewBox="0 0 56 57" fill="none" xmlns="http://www.w3.org/2000/svg">
<path d="M56 28.5001C56 20.8472 49.7739 14.6211 42.121 14.6211C38.4137 14.6211 34.9285 16.0647 32.3071 18.6862L18.1859 32.8072C17.0356 33.9576 15.506 34.5912 13.8789 34.5912C10.5202 34.5912 7.78783 31.8588 7.78783 28.5001C7.78783 25.1414 10.5202 22.409 13.8789 22.409C15.506 22.409 17.0356 23.0426 18.186 24.1932L20.1729 26.18L25.6798 20.6731L23.6928 18.6862C21.0714 16.0647 17.5862 14.6211 13.8789 14.6211C6.22606 14.6211 0 20.8472 0 28.5001C0 36.1531 6.22606 42.3792 13.879 42.3792C17.5863 42.3792 21.0715 40.9355 23.6929 38.314L37.8141 24.1929C38.9644 23.0425 40.494 22.4089 42.1211 22.4089C45.4798 22.4089 48.2122 25.1413 48.2122 28.5C48.2122 31.8587 45.4798 34.5911 42.1211 34.5911C40.4939 34.5911 38.9643 33.9575 37.814 32.8069L35.8271 30.8201L30.3202 36.3269L32.3071 38.3138C34.9286 40.9352 38.4138 42.3789 42.1211 42.3789C49.7739 42.3792 56 36.1531 56 28.5001Z" fill="#3267E3"/>
</svg>
