<svg width="72" height="72" viewBox="0 0 72 72" fill="none" xmlns="http://www.w3.org/2000/svg">
<g clip-path="url(#clip0_686_19470)">
<path d="M51.9247 39.6313C45.2062 39.6313 39.7405 45.0969 39.7405 51.8154C39.7405 58.5338 45.2062 63.9996 51.9247 64C58.6431 63.9996 64.1089 58.5338 64.1089 51.8154C64.1089 45.0969 58.6431 39.6311 51.9247 39.6311V39.6313ZM51.9247 55.3298C49.9833 55.3298 48.4097 53.7564 48.4097 51.8154C48.4097 49.8744 49.9836 48.3009 51.9247 48.3009C53.8661 48.3009 55.4396 49.8744 55.4396 51.8154C55.4392 53.7564 53.8652 55.3298 51.9247 55.3298ZM20.2935 32.3687C27.0119 32.3684 32.4777 26.9026 32.4777 20.1842C32.4777 16.9299 31.2105 13.8699 28.9089 11.5687C26.6077 9.26733 23.5478 8 20.2935 8H20.2931C17.0388 8 13.9789 9.26722 11.6777 11.5688C9.37642 13.8699 8.10931 16.9299 8.10931 20.1843C8.10931 26.9026 13.5751 32.3683 20.2935 32.3687ZM20.2935 16.6697C22.2345 16.6697 23.808 18.2432 23.808 20.1842C23.808 22.1252 22.2345 23.6991 20.2935 23.6991C18.3525 23.6991 16.779 22.1252 16.779 20.1842C16.779 18.2432 18.3525 16.6697 20.2935 16.6697ZM64.1089 13.1552C64.1089 11.7781 63.5727 10.4836 62.599 9.50992C61.6254 8.53616 60.3307 8 58.9537 8C57.5771 8 56.2825 8.53572 55.308 9.50992L9.6188 55.1991C7.60903 57.2089 7.60903 60.4794 9.6188 62.4896C10.5925 63.4634 11.887 64 13.2645 64C14.6415 64 15.9361 63.4638 16.9097 62.4896L62.599 16.8004C63.5727 15.8268 64.1089 14.5322 64.1089 13.1552Z" fill="#3267E3"/>
</g>
<defs>
<clipPath id="clip0_686_19470">
<rect width="56" height="56" fill="white" transform="translate(8 8)"/>
</clipPath>
</defs>
</svg>
