<svg width="72" height="72" viewBox="0 0 72 72" fill="none" xmlns="http://www.w3.org/2000/svg">
<path d="M55.8333 29H52.3333V24.3333C52.3333 15.327 45.0064 8 36 8C26.9936 8 19.6667 15.327 19.6667 24.3333V29H16.1667C15.5218 29 15 29.5218 15 30.1667V59.3334C15 61.9071 17.0929 64 19.6667 64H52.3334C54.9071 64 57 61.9071 57 59.3333V30.1667C57 29.5218 56.4782 29 55.8333 29ZM39.4932 53.3713C39.5296 53.7005 39.4238 54.0309 39.2027 54.2782C38.9817 54.5254 38.6649 54.6667 38.3334 54.6667H33.6667C33.3352 54.6667 33.0184 54.5254 32.7974 54.2782C32.5763 54.031 32.4704 53.7006 32.5069 53.3713L33.2429 46.753C32.0477 45.8837 31.3334 44.5085 31.3334 43C31.3334 40.4263 33.4263 38.3333 36.0001 38.3333C38.5739 38.3333 40.6668 40.4262 40.6668 43C40.6668 44.5085 39.9525 45.8837 38.7573 46.753L39.4932 53.3713ZM45.3333 29H26.6667V24.3333C26.6667 19.187 30.8537 15 36 15C41.1463 15 45.3333 19.187 45.3333 24.3333V29Z" fill="#3267E3"/>
</svg>
