<svg width="127" height="17" viewBox="0 0 127 17" fill="none" xmlns="http://www.w3.org/2000/svg">
  <path
    d="M0.704 15L4.64 4.696H6.592L10.496 15H8.704L7.68 12.344H3.536L2.512 15H0.704ZM3.808 11H7.392L5.6 6.28L3.808 11ZM14.2321 15.16C13.4215 15.16 12.8135 14.9467 12.4081 14.52C12.0135 14.0827 11.8161 13.4907 11.8161 12.744V8.776H10.6961V7.416H11.8161V5.672L13.5441 5.144V7.416H15.5601L15.4481 8.776H13.5441V12.648C13.5441 13.0853 13.6455 13.3947 13.8481 13.576C14.0508 13.7467 14.3815 13.832 14.8401 13.832C15.1281 13.832 15.4321 13.7787 15.7521 13.672V14.904C15.3361 15.0747 14.8295 15.16 14.2321 15.16ZM20.7181 15.16C19.3528 15.16 18.3501 14.8187 17.7101 14.136C17.0808 13.4533 16.7661 12.4773 16.7661 11.208C16.7661 9.93867 17.0861 8.96267 17.7261 8.28C18.3661 7.59733 19.3635 7.256 20.7181 7.256C22.0835 7.256 23.0861 7.59733 23.7261 8.28C24.3661 8.96267 24.6861 9.93867 24.6861 11.208C24.6861 12.4773 24.3661 13.4533 23.7261 14.136C23.0968 14.8187 22.0941 15.16 20.7181 15.16ZM20.7181 13.688C21.5181 13.688 22.0835 13.496 22.4141 13.112C22.7555 12.7173 22.9261 12.0827 22.9261 11.208C22.9261 10.3333 22.7555 9.704 22.4141 9.32C22.0835 8.936 21.5181 8.744 20.7181 8.744C19.9288 8.744 19.3635 8.936 19.0221 9.32C18.6915 9.704 18.5261 10.3333 18.5261 11.208C18.5261 12.0827 18.6915 12.7173 19.0221 13.112C19.3635 13.496 19.9288 13.688 20.7181 13.688ZM26.383 15V7.416H27.983L28.063 8.216C28.4043 7.94933 28.8097 7.72533 29.279 7.544C29.759 7.352 30.287 7.256 30.863 7.256C31.8443 7.256 32.559 7.48533 33.007 7.944C33.455 8.40267 33.679 9.11733 33.679 10.088V15H31.951V10.168C31.951 9.58133 31.8283 9.17067 31.583 8.936C31.3483 8.70133 30.9003 8.584 30.239 8.584C29.8443 8.584 29.455 8.664 29.071 8.824C28.6977 8.984 28.383 9.192 28.127 9.448V15H26.383ZM39.3168 15.16C37.9941 15.16 36.9701 14.8347 36.2448 14.184C35.5194 13.5333 35.1568 12.536 35.1568 11.192C35.1568 9.976 35.4661 9.016 36.0848 8.312C36.7034 7.608 37.6421 7.256 38.9008 7.256C40.0528 7.256 40.9168 7.56 41.4928 8.168C42.0794 8.76533 42.3728 9.53867 42.3728 10.488V11.896H36.8207C36.9061 12.632 37.1728 13.1387 37.6208 13.416C38.0688 13.6933 38.7514 13.832 39.6688 13.832C40.0528 13.832 40.4474 13.7947 40.8528 13.72C41.2581 13.6453 41.6101 13.5493 41.9088 13.432V14.712C41.5674 14.8613 41.1728 14.9733 40.7248 15.048C40.2874 15.1227 39.8181 15.16 39.3168 15.16ZM36.8207 10.76H40.8368V10.232C40.8368 9.70933 40.6928 9.304 40.4048 9.016C40.1168 8.71733 39.6314 8.568 38.9488 8.568C38.1381 8.568 37.5781 8.744 37.2688 9.096C36.9701 9.448 36.8207 10.0027 36.8207 10.76ZM45.9585 15.16C45.3398 15.16 44.8705 15.0107 44.5505 14.712C44.2305 14.4027 44.0705 13.896 44.0705 13.192V4.216H45.8145V13.032C45.8145 13.3307 45.8678 13.5333 45.9745 13.64C46.0812 13.7467 46.2412 13.8 46.4545 13.8C46.7105 13.8 46.9558 13.768 47.1905 13.704V14.968C46.9878 15.0427 46.7905 15.0907 46.5985 15.112C46.4172 15.144 46.2038 15.16 45.9585 15.16ZM50.0366 15.16C49.418 15.16 48.9486 15.0107 48.6286 14.712C48.3086 14.4027 48.1486 13.896 48.1486 13.192V4.216H49.8926V13.032C49.8926 13.3307 49.946 13.5333 50.0526 13.64C50.1593 13.7467 50.3193 13.8 50.5326 13.8C50.7886 13.8 51.034 13.768 51.2686 13.704V14.968C51.066 15.0427 50.8686 15.0907 50.6766 15.112C50.4953 15.144 50.282 15.16 50.0366 15.16ZM55.001 15.16C54.521 15.16 54.073 15.0747 53.657 14.904C53.2517 14.7333 52.9263 14.4773 52.681 14.136C52.4357 13.784 52.313 13.352 52.313 12.84C52.313 12.1147 52.5583 11.5333 53.049 11.096C53.5503 10.648 54.3183 10.424 55.353 10.424H57.785V10.088C57.785 9.72533 57.7263 9.43733 57.609 9.224C57.5023 9.01067 57.2997 8.856 57.001 8.76C56.713 8.664 56.2863 8.616 55.721 8.616C54.825 8.616 53.9877 8.74933 53.209 9.016V7.72C53.5503 7.58133 53.9663 7.46933 54.457 7.384C54.9477 7.29867 55.4757 7.256 56.041 7.256C57.1503 7.256 57.993 7.48 58.569 7.928C59.1557 8.376 59.449 9.10667 59.449 10.12V15H57.961L57.849 14.232C57.5397 14.5307 57.1557 14.76 56.697 14.92C56.249 15.08 55.6837 15.16 55.001 15.16ZM55.465 13.912C55.9877 13.912 56.441 13.8267 56.825 13.656C57.2197 13.4747 57.5397 13.2347 57.785 12.936V11.608H55.385C54.873 11.608 54.4997 11.7093 54.265 11.912C54.041 12.104 53.929 12.4027 53.929 12.808C53.929 13.2027 54.0623 13.4853 54.329 13.656C54.5957 13.8267 54.9743 13.912 55.465 13.912ZM64.0625 16.12H80.0625V0.12H64.0625V16.12ZM86.102 15V6.232L84.438 6.52V5.064L87.83 4.536V15H86.102ZM92.4754 15.16C92.166 15.16 91.8247 15.1387 91.4514 15.096C91.078 15.064 90.7207 15.0107 90.3794 14.936C90.0487 14.8613 89.7714 14.7813 89.5474 14.696V13.176C89.974 13.3467 90.4114 13.4747 90.8594 13.56C91.318 13.6347 91.7767 13.672 92.2354 13.672C93.0674 13.672 93.686 13.5493 94.0914 13.304C94.4967 13.0587 94.6994 12.6267 94.6994 12.008C94.6994 11.4533 94.5127 11.0533 94.1394 10.808C93.7767 10.5627 93.254 10.44 92.5714 10.44H91.0194L91.1634 9.144H92.4594C93.814 9.144 94.4914 8.61067 94.4914 7.544C94.4914 7.02133 94.31 6.63733 93.9474 6.392C93.5954 6.14667 93.0247 6.024 92.2354 6.024C91.798 6.024 91.3554 6.06667 90.9074 6.152C90.47 6.23733 90.0807 6.35467 89.7394 6.504V5.016C90.0594 4.888 90.4754 4.776 90.9874 4.68C91.4994 4.584 92.006 4.536 92.5074 4.536C93.766 4.536 94.6994 4.80267 95.3074 5.336C95.926 5.86933 96.2354 6.552 96.2354 7.384C96.2354 7.896 96.1074 8.376 95.8514 8.824C95.606 9.272 95.2167 9.592 94.6834 9.784C95.302 9.944 95.75 10.232 96.0274 10.648C96.3154 11.064 96.4594 11.5547 96.4594 12.12C96.4594 13.1547 96.0967 13.9227 95.3714 14.424C94.646 14.9147 93.6807 15.16 92.4754 15.16ZM102.372 15.288C101.284 15.288 100.41 15.08 99.7483 14.664C99.0869 14.2373 98.6016 13.6293 98.2923 12.84C97.9936 12.04 97.8443 11.0853 97.8443 9.976C97.8443 8.824 97.9883 7.84267 98.2763 7.032C98.5749 6.22133 99.0549 5.60267 99.7163 5.176C100.378 4.74933 101.263 4.536 102.372 4.536C103.482 4.536 104.362 4.74933 105.012 5.176C105.674 5.60267 106.148 6.22133 106.436 7.032C106.735 7.84267 106.884 8.824 106.884 9.976C106.884 11.0853 106.735 12.04 106.436 12.84C106.138 13.6293 105.658 14.2373 104.996 14.664C104.335 15.08 103.46 15.288 102.372 15.288ZM102.372 13.8C103.396 13.8 104.111 13.464 104.516 12.792C104.922 12.1093 105.124 11.1707 105.124 9.976C105.124 8.70667 104.927 7.73067 104.532 7.048C104.138 6.36533 103.418 6.024 102.372 6.024C101.327 6.024 100.602 6.36533 100.196 7.048C99.8016 7.73067 99.6043 8.70667 99.6043 9.976C99.6043 11.1707 99.8069 12.1093 100.212 12.792C100.618 13.464 101.338 13.8 102.372 13.8ZM108.586 15V4.696H110.33V9.432L114.714 4.696H116.73L112.938 8.856L116.89 15H115.034L111.85 9.96L110.33 11.592V15H108.586ZM118.266 15V13.656H119.722V15H118.266ZM121.434 15V13.656H122.874V15H121.434ZM124.586 15V13.656H126.026V15H124.586Z"
    fill="white" />
</svg>