<svg width="17" height="16" viewBox="0 0 17 16" fill="none" xmlns="http://www.w3.org/2000/svg">
  <g clip-path="url(#clip0_6_127)">
    <path
      d="M11.8333 14V12.6667C11.8333 11.9594 11.5524 11.2811 11.0523 10.781C10.5522 10.281 9.87392 10 9.16667 10H3.83334C3.12609 10 2.44782 10.281 1.94772 10.781C1.44762 11.2811 1.16667 11.9594 1.16667 12.6667V14"
      stroke="white" stroke-linecap="round" stroke-linejoin="round" />
    <path
      d="M6.49999 7.33333C7.97275 7.33333 9.16666 6.13943 9.16666 4.66667C9.16666 3.19391 7.97275 2 6.49999 2C5.02724 2 3.83333 3.19391 3.83333 4.66667C3.83333 6.13943 5.02724 7.33333 6.49999 7.33333Z"
      stroke="white" stroke-linecap="round" stroke-linejoin="round" />
    <path
      d="M15.8333 14V12.6667C15.8329 12.0758 15.6362 11.5019 15.2742 11.0349C14.9122 10.5679 14.4054 10.2344 13.8333 10.0867"
      stroke="white" stroke-linecap="round" stroke-linejoin="round" />
    <path
      d="M11.1667 2.08667C11.7403 2.23354 12.2487 2.56714 12.6118 3.03488C12.9748 3.50262 13.1719 4.07789 13.1719 4.67C13.1719 5.26212 12.9748 5.83739 12.6118 6.30513C12.2487 6.77287 11.7403 7.10647 11.1667 7.25334"
      stroke="white" stroke-linecap="round" stroke-linejoin="round" />
  </g>
  <defs>
    <clipPath id="clip0_6_127">
      <rect width="16" height="16" fill="white" transform="translate(0.5)" />
    </clipPath>
  </defs>
</svg>