<svg width="1440" height="400" viewBox="0 0 1440 400" fill="none" xmlns="http://www.w3.org/2000/svg">
  <rect width="200" height="200" transform="matrix(1 0 0 -1 -80 200)" fill="#8EB5F0" />
  <path d="M-80 100C-80 44.7715 -35.2285 0 20 0L20 200C-35.2285 200 -80 155.228 -80 100Z" fill="#546EF3" />
  <path d="M120 100C120 44.7715 75.2285 0 20 0L20 200C75.2285 200 120 155.228 120 100Z" fill="#546EF3" />
  <rect x="120" width="200" height="200" fill="#E1EBFB" />
  <rect x="120" width="100" height="200" fill="#E1EBFB" />
  <path d="M220 0C220 55.2285 264.772 100 320 100V0H220Z" fill="#546EF3" />
  <path d="M220 200C220 144.772 264.772 100 320 100V200H220Z" fill="#8EB5F0" />
  <rect x="-80" y="400" width="200" height="200" transform="rotate(-90 -80 400)" fill="#E1EBFB" />
  <rect x="120" y="400" width="200" height="200" transform="rotate(-90 120 400)" fill="#8EB5F0" />
  <rect x="120" y="400" width="100" height="200" transform="rotate(-90 120 400)" fill="#1E1E1E" />
  <path d="M320 300C264.772 300 220 255.228 220 200H320V300Z" fill="#546EF3" />
  <rect x="520" width="200" height="200" transform="rotate(90 520 0)" fill="#8EB5F0" />
  <path
    d="M520 0C520 26.2644 514.827 52.2716 504.776 76.5367C494.725 100.802 479.993 122.85 461.421 141.421C442.85 159.993 420.802 174.725 396.537 184.776C372.272 194.827 346.264 200 320 200L320 0H520Z"
    fill="#546EF3" />
  <rect x="520" width="200" height="200" fill="#8EB5F0" />
  <path d="M620 0C620 55.2285 664.772 100 720 100V0H620Z" fill="#E1EBFB" />
  <path d="M620 200C620 144.772 664.772 100 720 100V200H620Z" fill="#1E1E1E" />
  <path d="M620 0C620 55.2285 575.228 100 520 100V0H620Z" fill="#E1EBFB" />
  <path d="M620 200C620 144.772 575.228 100 520 100V200H620Z" fill="#546EF3" />
  <rect x="320" y="400" width="200" height="200" transform="rotate(-90 320 400)" fill="#8EB5F0" />
  <rect x="520" y="400" width="200" height="200" transform="rotate(-90 520 400)" fill="#8EB5F0" />
  <path d="M720 400V375L695 400H720Z" fill="#1E1E1E" />
  <path d="M695 400V375L670 400H695Z" fill="#1E1E1E" />
  <path d="M670 400V375L645 400H670Z" fill="#1E1E1E" />
  <path d="M645 400V375L620 400H645Z" fill="#1E1E1E" />
  <path d="M620 400V375L595 400H620Z" fill="#1E1E1E" />
  <path d="M595 400V375L570 400H595Z" fill="#1E1E1E" />
  <path d="M570 400V375L545 400H570Z" fill="#1E1E1E" />
  <path d="M545 400V375L520 400H545Z" fill="#1E1E1E" />
  <path d="M720 375V350L695 375H720Z" fill="#1E1E1E" />
  <path d="M695 375V350L670 375H695Z" fill="#1E1E1E" />
  <path d="M670 375V350L645 375H670Z" fill="#1E1E1E" />
  <path d="M645 375V350L620 375H645Z" fill="#1E1E1E" />
  <path d="M620 375V350L595 375H620Z" fill="#1E1E1E" />
  <path d="M595 375V350L570 375H595Z" fill="#1E1E1E" />
  <path d="M570 375V350L545 375H570Z" fill="#1E1E1E" />
  <path d="M720 350V325L695 350H720Z" fill="#1E1E1E" />
  <path d="M695 350V325L670 350H695Z" fill="#1E1E1E" />
  <path d="M670 350V325L645 350H670Z" fill="#1E1E1E" />
  <path d="M645 350V325L620 350H645Z" fill="#1E1E1E" />
  <path d="M620 350V325L595 350H620Z" fill="#1E1E1E" />
  <path d="M595 350V325L570 350H595Z" fill="#1E1E1E" />
  <path d="M720 325V300L695 325H720Z" fill="#1E1E1E" />
  <path d="M695 325V300L670 325H695Z" fill="#1E1E1E" />
  <path d="M670 325V300L645 325H670Z" fill="#1E1E1E" />
  <path d="M645 325V300L620 325H645Z" fill="#1E1E1E" />
  <path d="M620 325V300L595 325H620Z" fill="#1E1E1E" />
  <path d="M720 300V275L695 300H720Z" fill="#1E1E1E" />
  <path d="M695 300V275L670 300H695Z" fill="#1E1E1E" />
  <path d="M670 300V275L645 300H670Z" fill="#1E1E1E" />
  <path d="M645 300V275L620 300H645Z" fill="#1E1E1E" />
  <path d="M720 275V250L695 275H720Z" fill="#1E1E1E" />
  <path d="M695 275V250L670 275H695Z" fill="#1E1E1E" />
  <path d="M670 275V250L645 275H670Z" fill="#1E1E1E" />
  <path d="M720 250V225L695 250H720Z" fill="#1E1E1E" />
  <path d="M695 250V225L670 250H695Z" fill="#1E1E1E" />
  <path d="M720 225V200L695 225H720Z" fill="#1E1E1E" />
  <rect width="200" height="200" transform="matrix(0 -1 -1 0 920 200)" fill="#1E1E1E" />
  <path d="M720 200V0L920 200H720Z" fill="#1E1E1E" />
  <rect width="200" height="200" transform="matrix(0 1 1 0 920 0)" fill="#8EB5F0" />
  <path d="M1020 100C1075.23 100 1120 144.772 1120 200H920C920 144.772 964.772 100 1020 100Z" fill="#546EF3" />
  <path d="M1020 100C1075.23 100 1120 55.2285 1120 0L920 0C920 55.2285 964.772 100 1020 100Z" fill="#E1EBFB" />
  <rect x="720" y="400" width="200" height="200" transform="rotate(-90 720 400)" fill="#1E1E1E" />
  <path
    d="M720 400C720 373.736 725.173 347.728 735.224 323.463C745.275 299.198 760.007 277.15 778.579 258.579C797.15 240.007 819.198 225.275 843.463 215.224C867.728 205.173 893.736 200 920 200L920 400H720Z"
    fill="#546EF3" />
  <rect x="920" y="400" width="200" height="200" transform="rotate(-90 920 400)" fill="#E1EBFB" />
  <rect x="920" y="400" width="100" height="200" transform="rotate(-90 920 400)" fill="#1E1E1E" />
  <rect x="920" y="400" width="100" height="200" transform="rotate(-90 920 400)" fill="#1E1E1E" />
  <rect x="1520" y="400" width="200" height="200" transform="rotate(-180 1520 400)" fill="#8EB5F0" />
  <path d="M1420 400C1420 344.772 1375.23 300 1320 300L1320 400L1420 400Z" fill="#E1EBFB" />
  <path d="M1420 200C1420 255.228 1375.23 300 1320 300L1320 200L1420 200Z" fill="#1E1E1E" />
  <path d="M1420 400C1420 344.772 1464.77 300 1520 300L1520 400L1420 400Z" fill="#E1EBFB" />
  <path d="M1420 200C1420 255.228 1464.77 300 1520 300L1520 200L1420 200Z" fill="#546EF3" />
  <rect width="200" height="200" transform="matrix(-1 -8.74228e-08 -8.74228e-08 1 1320 200)" fill="#8EB5F0" />
  <path d="M1320 300C1320 355.228 1275.23 400 1220 400L1220 200C1275.23 200 1320 244.772 1320 300Z" fill="#546EF3" />
  <path d="M1120 300C1120 355.228 1164.77 400 1220 400L1220 200C1164.77 200 1120 244.772 1120 300Z" fill="#546EF3" />
  <rect x="1520" width="200" height="200" transform="rotate(90 1520 0)" fill="#8EB5F0" />
  <path d="M1320 -2.18557e-06L1320 25L1345 0L1320 -2.18557e-06Z" fill="#1E1E1E" />
  <path d="M1345 -2.18557e-06L1345 25L1370 0L1345 -2.18557e-06Z" fill="#1E1E1E" />
  <path d="M1370 -2.18557e-06L1370 25L1395 0L1370 -2.18557e-06Z" fill="#1E1E1E" />
  <path d="M1395 -2.18557e-06L1395 25L1420 0L1395 -2.18557e-06Z" fill="#1E1E1E" />
  <path d="M1420 -2.18557e-06L1420 25L1445 0L1420 -2.18557e-06Z" fill="#1E1E1E" />
  <path d="M1320 25L1320 50L1345 25L1320 25Z" fill="#1E1E1E" />
  <path d="M1345 25L1345 50L1370 25L1345 25Z" fill="#1E1E1E" />
  <path d="M1370 25L1370 50L1395 25L1370 25Z" fill="#1E1E1E" />
  <path d="M1395 25L1395 50L1420 25L1395 25Z" fill="#1E1E1E" />
  <path d="M1420 25L1420 50L1445 25L1420 25Z" fill="#1E1E1E" />
  <path d="M1320 50L1320 75L1345 50L1320 50Z" fill="#1E1E1E" />
  <path d="M1345 50L1345 75L1370 50L1345 50Z" fill="#1E1E1E" />
  <path d="M1370 50L1370 75L1395 50L1370 50Z" fill="#1E1E1E" />
  <path d="M1395 50L1395 75L1420 50L1395 50Z" fill="#1E1E1E" />
  <path d="M1420 50L1420 75L1445 50L1420 50Z" fill="#1E1E1E" />
  <path d="M1320 75L1320 100L1345 75L1320 75Z" fill="#1E1E1E" />
  <path d="M1345 75L1345 100L1370 75L1345 75Z" fill="#1E1E1E" />
  <path d="M1370 75L1370 100L1395 75L1370 75Z" fill="#1E1E1E" />
  <path d="M1395 75L1395 100L1420 75L1395 75Z" fill="#1E1E1E" />
  <path d="M1420 75L1420 100L1445 75L1420 75Z" fill="#1E1E1E" />
  <path d="M1320 100L1320 125L1345 100L1320 100Z" fill="#1E1E1E" />
  <path d="M1345 100L1345 125L1370 100L1345 100Z" fill="#1E1E1E" />
  <path d="M1370 100L1370 125L1395 100L1370 100Z" fill="#1E1E1E" />
  <path d="M1395 100L1395 125L1420 100L1395 100Z" fill="#1E1E1E" />
  <path d="M1320 125L1320 150L1345 125L1320 125Z" fill="#1E1E1E" />
  <path d="M1345 125L1345 150L1370 125L1345 125Z" fill="#1E1E1E" />
  <path d="M1370 125L1370 150L1395 125L1370 125Z" fill="#1E1E1E" />
  <path d="M1320 150L1320 175L1345 150L1320 150Z" fill="#1E1E1E" />
  <path d="M1345 150L1345 175L1370 150L1345 150Z" fill="#1E1E1E" />
  <path d="M1320 175L1320 200L1345 175L1320 175Z" fill="#1E1E1E" />
  <rect x="1320" width="200" height="200" transform="rotate(90 1320 0)" fill="#E1EBFB" />
</svg>